<svg width="1820" height="148" viewBox="0 0 1820 148" fill="none" xmlns="http://www.w3.org/2000/svg">
<path d="M68.8591 148C47.1849 148 30.2899 142.137 18.174 130.41C6.05798 118.683 0 102.238 0 81.0765V3.23497H47.6561V79.6612C47.6561 90.4445 49.6081 98.1275 53.5122 102.71C57.4163 107.158 62.6665 109.383 69.2629 109.383C75.9941 109.383 81.2443 107.158 85.0137 102.71C88.9178 98.1275 90.8697 90.4445 90.8697 79.6612V3.23497H137.718V81.0765C137.718 102.238 131.66 118.683 119.544 130.41C107.428 142.137 90.5332 148 68.8591 148ZM159.563 144.765V3.23497H227.615C240.808 3.23497 252.183 5.39161 261.741 9.70492C271.434 14.0183 278.905 20.2186 284.156 28.306C289.406 36.2587 292.031 45.694 292.031 56.612C292.031 67.5301 289.406 76.9654 284.156 84.918C278.905 92.7359 271.434 98.7341 261.741 102.913C252.183 107.091 240.808 109.18 227.615 109.18H186.016L207.219 89.5683V144.765H159.563ZM244.173 144.765L209.441 93.2077H259.924L295.06 144.765H244.173ZM207.219 94.8251L186.016 73.1913H224.586C231.182 73.1913 236.028 71.7085 239.125 68.7432C242.356 65.7778 243.971 61.7341 243.971 56.612C243.971 51.49 242.356 47.4462 239.125 44.4809C236.028 41.5155 231.182 40.0328 224.586 40.0328H186.016L207.219 18.3989V94.8251ZM310.026 144.765V3.23497H385.549C405.07 3.23497 419.474 6.73952 428.763 13.7486C438.052 20.623 442.696 29.4517 442.696 40.235C442.696 47.3789 440.677 53.7814 436.638 59.4426C432.735 64.9691 427.013 69.3497 419.474 72.5847C411.936 75.8197 402.647 77.4372 391.607 77.4372L395.646 66.5191C406.686 66.5191 416.176 68.0692 424.118 71.1694C432.196 74.2696 438.389 78.785 442.696 84.7159C447.139 90.5118 449.36 97.521 449.36 105.743C449.36 118.009 444.245 127.579 434.013 134.454C423.916 141.328 409.109 144.765 389.588 144.765H310.026ZM356.875 111.404H385.549C390.799 111.404 394.704 110.461 397.261 108.574C399.954 106.686 401.3 103.924 401.3 100.284C401.3 96.6448 399.954 93.8816 397.261 91.9945C394.704 90.1074 390.799 89.1639 385.549 89.1639H353.644V57.623H379.087C384.473 57.623 388.376 56.7468 390.799 54.9945C393.358 53.1074 394.636 50.479 394.636 47.1093C394.636 43.6047 393.358 40.9763 390.799 39.224C388.376 37.4718 384.473 36.5956 379.087 36.5956H356.875V111.404ZM450.862 144.765L512.654 3.23497H559.502L621.294 144.765H572.022L526.385 25.8798H544.963L499.326 144.765H450.862ZM487.614 120.098L499.73 85.7268H564.753L576.868 120.098H487.614ZM628.899 144.765V3.23497H668.074L739.963 89.3661H721.789V3.23497H768.233V144.765H729.058L657.17 58.6339H675.344V144.765H628.899ZM821.889 144.765V40.235H780.492V3.23497H910.941V40.235H869.545V144.765H821.889ZM1014.99 3.23497H1062.65V144.765H1014.99V3.23497ZM970.975 144.765H923.318V3.23497H970.975V144.765ZM1018.23 92.6011H967.744V53.3771H1018.23V92.6011ZM1085.61 144.765V3.23497H1153.66C1166.86 3.23497 1178.24 5.39161 1187.79 9.70492C1197.48 14.0183 1204.95 20.2186 1210.2 28.306C1215.45 36.2587 1218.08 45.694 1218.08 56.612C1218.08 67.5301 1215.45 76.9654 1210.2 84.918C1204.95 92.7359 1197.48 98.7341 1187.79 102.913C1178.24 107.091 1166.86 109.18 1153.66 109.18H1112.06L1133.27 89.5683V144.765H1085.61ZM1170.22 144.765L1135.49 93.2077H1185.97L1221.11 144.765H1170.22ZM1133.27 94.8251L1112.06 73.1913H1150.63C1157.24 73.1913 1162.08 71.7085 1165.17 68.7432C1168.4 65.7778 1170.02 61.7341 1170.02 56.612C1170.02 51.49 1168.4 47.4462 1165.17 44.4809C1162.08 41.5155 1157.24 40.0328 1150.63 40.0328H1112.06L1133.27 18.3989V94.8251ZM1279.7 55.8033H1342.7V90.1749H1279.7V55.8033ZM1282.93 108.776H1353.61V144.765H1236.08V3.23497H1350.98V39.224H1282.93V108.776ZM1356.6 144.765L1418.4 3.23497H1465.24L1527.04 144.765H1477.76L1432.13 25.8798H1450.71L1405.07 144.765H1356.6ZM1393.36 120.098L1405.47 85.7268H1470.49L1482.61 120.098H1393.36ZM1534.64 144.765V3.23497H1604.31C1620.06 3.23497 1633.92 6.13297 1645.9 11.929C1657.89 17.5902 1667.24 25.6776 1673.97 36.1913C1680.71 46.7049 1684.07 59.2404 1684.07 73.7978C1684.07 88.49 1680.71 101.161 1673.97 111.809C1667.24 122.322 1657.89 130.478 1645.9 136.273C1633.92 141.934 1620.06 144.765 1604.31 144.765H1534.64ZM1582.29 107.563H1602.29C1609.02 107.563 1614.88 106.282 1619.85 103.721C1624.97 101.161 1628.94 97.3861 1631.77 92.3989C1634.6 87.2768 1636.01 81.0765 1636.01 73.7978C1636.01 66.6539 1634.6 60.5883 1631.77 55.6011C1628.94 50.6139 1624.97 46.8397 1619.85 44.2787C1614.88 41.7177 1609.02 40.4372 1602.29 40.4372H1582.29V107.563ZM1754.17 148C1742.33 148 1730.89 146.652 1719.84 143.956C1708.81 141.26 1699.72 137.756 1692.58 133.443L1707.93 98.6667C1714.66 102.576 1722.13 105.743 1730.34 108.169C1738.69 110.461 1746.77 111.607 1754.57 111.607C1759.16 111.607 1762.72 111.337 1765.28 110.798C1767.97 110.124 1769.92 109.248 1771.13 108.169C1772.34 106.956 1772.95 105.541 1772.95 103.924C1772.95 101.363 1771.54 99.3407 1768.71 97.8579C1765.88 96.3752 1762.12 95.1621 1757.4 94.2186C1752.83 93.1402 1747.78 92.062 1742.26 90.9836C1736.74 89.7705 1731.15 88.2204 1725.5 86.3333C1719.98 84.4462 1714.86 81.9527 1710.15 78.8525C1705.57 75.7523 1701.87 71.7085 1699.04 66.7213C1696.22 61.5992 1694.8 55.2642 1694.8 47.7159C1694.8 38.9544 1697.22 31.0019 1702.07 23.8579C1707.06 16.5792 1714.39 10.7833 1724.08 6.46995C1733.92 2.15665 1746.09 0 1760.63 0C1770.19 0 1779.61 1.01092 1788.9 3.03278C1798.19 5.05464 1806.54 8.15482 1813.94 12.3333L1799.6 46.9071C1792.61 43.4025 1785.81 40.7741 1779.21 39.0219C1772.75 37.2696 1766.43 36.3934 1760.23 36.3934C1755.65 36.3934 1752.02 36.7978 1749.32 37.6066C1746.64 38.4153 1744.68 39.4937 1743.47 40.8415C1742.4 42.1894 1741.85 43.6721 1741.85 45.2896C1741.85 47.7159 1743.27 49.6703 1746.09 51.153C1748.92 52.5009 1752.63 53.6467 1757.2 54.5902C1761.91 55.5337 1767.03 56.5446 1772.55 57.623C1778.2 58.7013 1783.79 60.1839 1789.31 62.071C1794.83 63.9581 1799.88 66.4517 1804.45 69.5519C1809.17 72.6521 1812.93 76.6958 1815.76 81.6831C1818.59 86.6703 1820 92.8707 1820 100.284C1820 108.91 1817.52 116.863 1812.53 124.142C1807.68 131.286 1800.41 137.082 1790.72 141.53C1781.03 145.844 1768.85 148 1754.17 148Z" fill="black"/>
</svg>
