<svg width="36" height="21" viewBox="0 0 36 21" fill="none" xmlns="http://www.w3.org/2000/svg">
<path d="M22.8673 2.63739H13.1328V18.3614H22.8673V2.63739Z" fill="#FF5F00"/>
<path d="M13.7511 10.5C13.7495 8.98566 14.1313 7.49087 14.8675 6.12876C15.6036 4.76666 16.6749 3.57294 18.0002 2.638C16.359 1.47846 14.388 0.757354 12.3124 0.557112C10.2369 0.35687 8.14048 0.685569 6.26291 1.50564C4.38534 2.32571 2.80233 3.60406 1.69482 5.19459C0.587319 6.78511 0 8.62362 0 10.5C0 12.3764 0.587319 14.2149 1.69482 15.8054C2.80233 17.3959 4.38534 18.6743 6.26291 19.4944C8.14048 20.3144 10.2369 20.6431 12.3124 20.4429C14.388 20.2426 16.359 19.5215 18.0002 18.362C16.6749 17.4271 15.6037 16.2333 14.8675 14.8712C14.1313 13.5091 13.7495 12.0143 13.7511 10.5V10.5Z" fill="#EB001B"/>
<path d="M35.9997 10.5C35.9997 12.3763 35.4125 14.2149 34.3051 15.8054C33.1976 17.3959 31.6147 18.6743 29.7371 19.4943C27.8596 20.3144 25.7632 20.6431 23.6877 20.4429C21.6121 20.2426 19.6411 19.5215 18 18.362C19.3241 17.4261 20.3946 16.2322 21.1306 14.8703C21.8667 13.5084 22.2491 12.0141 22.2491 10.5C22.2491 8.9859 21.8667 7.49158 21.1306 6.12968C20.3946 4.76779 19.3241 3.57389 18 2.638C19.6411 1.47845 21.6121 0.75735 23.6877 0.55711C25.7632 0.35687 27.8596 0.685576 29.7371 1.50566C31.6147 2.32573 33.1976 3.60409 34.3051 5.19462C35.4125 6.78514 35.9997 8.62365 35.9997 10.5V10.5Z" fill="#F79E1B"/>
<path d="M34.9382 16.6962V16.3743H35.0826V16.3087H34.7148V16.3743H34.8593V16.6962H34.9382ZM35.6522 16.6962V16.3081H35.5395L35.4098 16.5751L35.2801 16.3081H35.1673V16.6962H35.2469V16.4035L35.3685 16.6559H35.4511L35.5727 16.4028V16.6962H35.6522Z" fill="#F79E1B"/>
</svg>
