<svg width="15" height="17" viewBox="0 0 15 17" fill="none" xmlns="http://www.w3.org/2000/svg">
<path d="M12.5 11.9419C11.8667 11.9419 11.2958 12.1877 10.8625 12.5835L4.925 9.12103C4.97083 8.93353 5 8.7377 5 8.5377C5 8.3377 4.97083 8.14186 4.925 7.95436L10.8 4.5252C11.2458 4.94186 11.8417 5.2002 12.5 5.2002C13.8792 5.2002 15 4.07936 15 2.7002C15 1.32103 13.8792 0.200195 12.5 0.200195C11.1208 0.200195 10 1.32103 10 2.7002C10 2.9002 10.0292 3.09603 10.075 3.28353L4.2 6.7127C3.75417 6.29603 3.15833 6.0377 2.5 6.0377C1.12083 6.0377 0 7.15853 0 8.5377C0 9.91686 1.12083 11.0377 2.5 11.0377C3.15833 11.0377 3.75417 10.7794 4.2 10.3627L10.1375 13.8252C10.0958 14.0002 10.0708 14.1835 10.0708 14.371C10.0708 15.7127 11.1583 16.8002 12.5 16.8002C13.8417 16.8002 14.9292 15.7127 14.9292 14.371C14.9292 13.0294 13.8417 11.9419 12.5 11.9419Z" fill="white"/>
</svg>
