<svg width="17" height="13" viewBox="0 0 17 13" fill="none" xmlns="http://www.w3.org/2000/svg">
<path fill-rule="evenodd" clip-rule="evenodd" d="M14.9969 2.0558C15.7171 1.64961 16.2711 1.00614 16.5309 0.23936C15.857 0.615494 15.1103 0.889049 14.3164 1.03619C13.6799 0.397896 12.7737 0 11.7705 0C9.84344 0 8.28196 1.46931 8.28196 3.2816C8.28196 3.53858 8.31279 3.78933 8.37226 4.02973C5.47396 3.89296 2.90381 2.58633 1.18377 0.600989C0.884246 1.08489 0.711361 1.64858 0.711361 2.2506C0.711361 3.38937 1.32692 4.39343 2.26292 4.98199C1.69142 4.96541 1.15404 4.81723 0.683832 4.57165C0.682731 4.58512 0.682731 4.5986 0.682731 4.61311C0.682731 6.20262 1.88521 7.52997 3.48082 7.83047C3.18791 7.9061 2.87958 7.94652 2.56245 7.94652C2.3367 7.94652 2.11867 7.92579 1.90614 7.88745C2.34991 9.19098 3.6372 10.1401 5.16342 10.166C3.96976 11.0468 2.46664 11.5711 0.832491 11.5711C0.55059 11.5711 0.273093 11.5556 0 11.5255C1.54385 12.456 3.37732 13 5.34733 13C11.7617 13 15.27 7.99936 15.27 3.66189C15.27 3.51993 15.2667 3.37797 15.2602 3.23705C15.9417 2.77491 16.5331 2.19672 17 1.53874C16.3745 1.79986 15.7028 1.97601 14.9969 2.0558Z" fill="#666666"/>
</svg>
