<svg width="54" height="19" viewBox="0 0 54 19" fill="none" xmlns="http://www.w3.org/2000/svg">
<path d="M26.7373 0.81794L23.1296 18.2267H18.7659L22.374 0.81794H26.7373ZM45.095 12.059L47.3916 5.52164L48.7133 12.059H45.095ZM49.9652 18.2267H54L50.475 0.81794H46.7532C45.9144 0.81794 45.2073 1.31991 44.8943 2.094L38.3471 18.2267H42.9297L43.8394 15.6268H49.4367L49.9652 18.2267ZM38.5743 12.5433C38.5933 7.94887 32.4208 7.69436 32.4621 5.64146C32.4754 5.01772 33.052 4.35326 34.3123 4.18332C34.937 4.10031 36.6612 4.03297 38.6156 4.96251L39.3801 1.2694C38.3304 0.877455 36.9795 0.5 35.2986 0.5C30.9849 0.5 27.9505 2.86497 27.9262 6.25424C27.8985 8.76056 30.0938 10.158 31.7444 10.9928C33.4462 11.846 34.0164 12.393 34.008 13.1553C33.9962 14.3233 32.6511 14.8406 31.3984 14.8601C29.2035 14.8954 27.9311 14.2478 26.9171 13.7599L26.125 17.5763C27.1462 18.0587 29.0278 18.4785 30.9762 18.5C35.5622 18.5 38.5606 16.1628 38.5743 12.5433ZM20.5022 0.81794L13.4322 18.2267H8.82038L5.34094 4.33329C5.13001 3.47892 4.94603 3.1649 4.30454 2.80389C3.25524 2.21578 1.52311 1.66565 0 1.32343L0.103186 0.81794H7.52791C8.47365 0.81794 9.32454 1.46752 9.54115 2.59206L11.3791 12.6667L15.9181 0.81794H20.5022Z" fill="#1434CB"/>
</svg>
