<svg width="21" height="11" viewBox="0 0 21 11" fill="none" xmlns="http://www.w3.org/2000/svg">
<path d="M20.5185 0.744918C20.6652 0.315157 20.5185 0 19.8247 0H17.5265C16.9417 0 16.6745 0.272646 16.5277 0.572092C16.5277 0.572092 15.3593 3.08502 13.7035 4.71442C13.169 5.18854 12.9248 5.33826 12.6335 5.33826C12.4878 5.33826 12.2761 5.18854 12.2761 4.75878V0.744918C12.2761 0.229206 12.1074 0 11.6201 0H8.00871C7.644 0 7.42394 0.238446 7.42394 0.465802C7.42394 0.953788 8.25185 1.06655 8.33673 2.44178V5.42514C8.33673 6.07856 8.20364 6.19778 7.91021 6.19778C7.13155 6.19778 5.23678 3.6756 4.1123 0.788355C3.89327 0.227357 3.67215 0.000923157 3.08527 0.000923157H0.788093C0.131005 0.000923157 0 0.273569 0 0.573014C0 1.11091 0.778655 3.77265 3.62708 7.29298C5.52603 9.69685 8.19944 11 10.635 11C12.0948 11 12.2751 10.7107 12.2751 10.2116V8.39464C12.2751 7.81609 12.4145 7.69963 12.8766 7.69963C13.2162 7.69963 13.801 7.8512 15.1644 9.00924C16.7217 10.3826 16.9795 10.9991 17.8546 10.9991H20.1517C20.8078 10.9991 21.1358 10.7098 20.9471 10.1386C20.7407 9.57024 19.9966 8.74307 19.0095 7.76433C18.4728 7.2061 17.6711 6.60537 17.4269 6.30499C17.0863 5.91774 17.1849 5.74677 17.4269 5.40296C17.4269 5.40296 20.2272 1.92699 20.5185 0.744918Z" fill="#666666"/>
</svg>
