<svg width="20" height="19" viewBox="0 0 20 19"  xmlns="http://www.w3.org/2000/svg">
<path fill-rule="evenodd" clip-rule="evenodd" d="M13.685 4.73949H19.3692V18.95H0.421875V4.73949H6.10609C6.10609 3.73446 6.50533 2.77059 7.216 2.05992C7.92666 1.34926 8.89053 0.950012 9.89556 0.950012C10.9006 0.950012 11.8645 1.34926 12.5751 2.05992C13.2858 2.77059 13.685 3.73446 13.685 4.73949ZM12.7377 4.73949C12.7377 3.98571 12.4382 3.26281 11.9052 2.72981C11.3722 2.19682 10.6493 1.89738 9.89556 1.89738C9.14179 1.89738 8.41889 2.19682 7.88589 2.72981C7.35289 3.26281 7.05346 3.98571 7.05346 4.73949H12.7377ZM1.47451 17.8974V5.79212H18.3166V17.8974H1.47451Z" />
</svg>
