<svg width="20" height="19" viewBox="0 0 20 19"  xmlns="http://www.w3.org/2000/svg">
<path d="M19.4219 18.8L14.9219 14.3C16.2219 12.8 17.0219 10.9 17.0219 8.8C17.0219 4.2 13.3219 0.5 8.72188 0.5C4.12188 0.5 0.421875 4.2 0.421875 8.8C0.421875 13.4 4.12188 17.1 8.72188 17.1C10.8219 17.1 12.7219 16.3 14.2219 15L18.7219 19.5L19.4219 18.8ZM1.42188 8.8C1.42188 4.8 4.72188 1.5 8.72188 1.5C12.7219 1.5 16.0219 4.8 16.0219 8.8C16.0219 12.8 12.7219 16.1 8.72188 16.1C4.72188 16.1 1.42188 12.8 1.42188 8.8Z" />
</svg>
